<svg id="Layer_1" enable-background="new 0 0 511.976 511.976" height="512" viewBox="0 0 511.976 511.976" width="512" xmlns="http://www.w3.org/2000/svg"><g><path d="m436.999 74.977c-48.351-48.35-112.635-74.977-181.011-74.977s-132.661 26.627-181.011 74.977-74.977 112.634-74.977 181.011 26.627 132.661 74.977 181.011 112.634 74.977 181.011 74.977 132.662-26.627 181.011-74.977 74.977-112.634 74.977-181.011-26.627-132.661-74.977-181.011z" fill="#ffda2d"/><path d="m436.999 74.977c-48.351-48.35-112.635-74.977-181.011-74.977v511.976c68.377 0 132.662-26.627 181.011-74.977s74.977-112.634 74.977-181.011-26.627-132.661-74.977-181.011z" fill="#febf01"/><g><path d="m211.982 222.657h-30c0-11.58-9.42-21-21-21s-21 9.42-21 21h-30c0-28.122 22.878-51 51-51s51 22.878 51 51z" fill="#606060"/></g><g><path d="m401.994 222.657h-30c0-11.58-9.421-21-21-21s-21 9.42-21 21h-30c0-28.122 22.879-51 51-51s51 22.878 51 51z" fill="#606060"/></g><path d="m387.527 298.135v-15h-263.056v15c0 24.869 6.94 48.148 18.982 68.003h225.093c12.042-19.856 18.981-43.134 18.981-68.003z" fill="#fff"/><path d="m255.988 283.135v83.003h112.558c12.042-19.856 18.982-43.134 18.982-68.003v-15z" fill="#f7f7f8"/><path d="m130.076 336.138c16.344 54.053 66.607 93.525 125.923 93.525s109.579-39.471 125.923-93.525z" fill="#606060"/><g><path d="m401.994 222.657h-30c0-11.58-9.421-21-21-21s-21 9.42-21 21h-30c0-28.122 22.879-51 51-51s51 22.878 51 51z" fill="#404040"/></g><path d="m255.988 336.138v93.525h.011c59.316 0 109.579-39.471 125.923-93.525z" fill="#404040"/></g></svg>